<svg id="Capa_1" enable-background="new 0 0 512 512" height="512" viewBox="0 0 512 512" width="512" xmlns="http://www.w3.org/2000/svg"><g><g><path clip-rule="evenodd" d="m157.328 406.249 11.109-18.223-11.109-18.195-47.754-8.079-47.754 8.079v18.195c0 10.029 8.19 18.223 18.214 18.223z" fill="#bcd0df" fill-rule="evenodd"/></g><g><path clip-rule="evenodd" d="m491.189 451.635v-87.105l-17.756-.057c-48.742-.172-36.714-11.92-73.915-11.92h-13.861l-.029 46.275v36.246 16.561c0 29.025 23.77 52.807 52.78 52.807 29.04.001 52.781-23.781 52.781-52.807z" fill="#da4a54" fill-rule="evenodd"/></g><g><path clip-rule="evenodd" d="m491.189 374.53v-102.979l-52.78-14.384-52.78 14.384v10.974l.029 80.028h13.861c37.201 0 25.173 11.719 73.915 11.92z" fill="#bcd0df" fill-rule="evenodd"/></g><g><path clip-rule="evenodd" d="m491.189 271.551h-105.559v19.341 5.788h64.922c10.138 0 15.636-.917 15.636 9.857v67.822c2.262.057 4.668.115 7.245.115l17.756.057z" fill="#81a7c6" fill-rule="evenodd"/></g><g><path clip-rule="evenodd" d="m438.409 504.443c29.039 0 52.78-23.782 52.78-52.807v-77.106l-17.756-.057c-2.577 0-4.983-.057-7.245-.115v59.512c0 29.025-23.741 52.779-52.751 52.779-5.842 0-11.455-.946-16.696-2.722 9.68 12.464 24.772 20.516 41.668 20.516z" fill="#c32430" fill-rule="evenodd"/></g><g><path clip-rule="evenodd" d="m336.802 56.024c8.305-8.281 8.305-21.862 0-30.172l-12.057-12.063c-8.305-8.309-21.879-8.309-30.156 0l-15.092 15.071 4.181 34.584 38.06 7.679z" fill="#faf8f9" fill-rule="evenodd"/></g><g><path clip-rule="evenodd" d="m179.436 213.5-1.575-36.647-40.637-5.616-15.092 15.1c-8.276 8.281-8.276 21.862 0 30.172l12.085 12.063c8.276 8.309 21.851 8.309 30.156 0z" fill="#faf8f9" fill-rule="evenodd"/></g><g><path clip-rule="evenodd" d="m279.497 369.831-62.373-37.879-59.796 37.879v36.418 59.226l57.104 26.79 65.065-26.79z" fill="#e7a561" fill-rule="evenodd"/></g><g><path clip-rule="evenodd" d="m389.123 233.414c-2.778-26.16-12.83-50.143-28.122-69.885-13.173 7.192-29.44 18.051-26.691 44.756 5.842 12.092 9.107 25.644 9.107 39.971 0 30.401-14.749 57.392-37.487 74.125 4.41 23.639.687 28.768 36.112 30.63 21.049-18.223 36.513-42.664 43.587-70.486z" fill="#918291" fill-rule="evenodd"/></g><g><path clip-rule="evenodd" d="m342.043 339.115c0-9.198-7.503-16.733-16.696-16.733h-19.417-265.789c-9.193 0-16.725 7.536-16.725 16.733v14.011c0 9.169 7.532 16.705 16.725 16.705h21.679 95.508 122.169 45.849c9.193 0 16.696-7.536 16.696-16.705v-.115-13.896z" fill="#faf8f9" fill-rule="evenodd"/></g><g><path clip-rule="evenodd" d="m236.111 417.653c0-9.771-7.933-17.708-17.698-17.708-9.766 0-17.67 7.937-17.67 17.708s7.904 17.679 17.67 17.679c9.765 0 17.698-7.909 17.698-17.679z" fill="#918291" fill-rule="evenodd"/></g><g><path clip-rule="evenodd" d="m315.438 465.475h-35.941-122.169-127.267c-10.711 0-19.474 8.768-19.474 19.484v16.848c0 1.433 1.174 2.636 2.635 2.636h319.055c1.461 0 2.635-1.203 2.635-2.636v-16.848c0-10.717-8.763-19.484-19.474-19.484z" fill="#918291" fill-rule="evenodd"/></g><g><path clip-rule="evenodd" d="m323.829 107.943c8.62-10.859 7.933-26.791-2.091-36.819l-42.241-42.263c-10.768-10.773-28.38-10.773-39.148 0l-103.125 103.208c-10.768 10.773-10.768 28.395 0 39.169l42.212 42.263c10.768 10.774 28.409 10.774 39.177-.029l34.108-34.126z" fill="#918291" fill-rule="evenodd"/></g><g><path clip-rule="evenodd" d="m361.087 160.607c0-24.326-15.55-45.014-37.258-52.664-5.785-2.034-12.028-3.152-18.529-3.152-30.814 0-55.787 24.985-55.787 55.816 0 6.562 1.117 12.894 3.207 18.739 7.704 21.604 28.323 37.077 52.579 37.077 10.625 0 20.562-2.98 29.01-8.137 15.264-9.341 25.717-25.788 26.691-44.756.058-.974.087-1.949.087-2.923z" fill="#faf8f9" fill-rule="evenodd"/></g><g><path clip-rule="evenodd" d="m313.72 180.521c7.761-3.266 13.202-10.945 13.202-19.914 0-11.948-9.68-21.633-21.622-21.633s-21.622 9.685-21.622 21.633c0 .487 0 .974.029 1.433.745 11.289 10.138 20.2 21.593 20.2 2.979 0 5.842-.602 8.42-1.719z" fill="#918291" fill-rule="evenodd"/></g><g><path clip-rule="evenodd" d="m361.087 160.607c0-24.326-15.55-45.014-37.258-52.664-5.785-2.034-12.028-3.152-18.529-3.152-4.296 0-8.505.487-12.515 1.404 4.439.458 8.735 1.433 12.83 2.865 4.067 1.433 7.933 3.324 11.512 5.616.029.057.086.086.115.115 15.407 9.914 25.602 27.249 25.602 46.934 0 .974 0 1.948-.057 2.923-.687 13.008-5.785 24.842-13.861 33.982-3.694 4.212-8.019 7.851-12.83 10.773-5.04 3.066-10.596 5.387-16.524 6.733 1.89.201 3.78.287 5.728.287 10.625 0 20.562-2.98 29.01-8.137 15.264-9.341 25.717-25.788 26.691-44.756.057-.974.086-1.949.086-2.923z" fill="#e5e1e5" fill-rule="evenodd"/></g><g><path clip-rule="evenodd" d="m61.82 369.831h95.508v18.195h-95.508z" fill="#81a7c6" fill-rule="evenodd"/></g><g><path clip-rule="evenodd" d="m342.043 339.115c0-9.198-7.503-16.733-16.696-16.733h-19.417-32.905c9.193 0 16.696 7.536 16.696 16.733v13.897.115c0 9.169-7.503 16.705-16.696 16.705h6.472 45.849c9.193 0 16.696-7.536 16.696-16.705v-.115-13.897z" fill="#e5e1e5" fill-rule="evenodd"/></g><g><path clip-rule="evenodd" d="m389.123 233.414c-2.778-26.16-12.83-50.143-28.122-69.885-.601 11.834-4.897 22.664-11.742 31.432 26.089 20 20.276 105.701-14.376 130.457 4.324 3.009 7.159 8.023 7.159 13.696v13.897c21.049-18.223 36.513-42.664 43.587-70.486v-10.974h-2.205c-4.41 0-8.019-3.61-8.019-8.023v-22.063c0-4.441 3.608-8.051 8.019-8.051z" fill="#685d68" fill-rule="evenodd"/></g><g><path clip-rule="evenodd" d="m279.497 369.831h-122.169v18.195h98.457c5.155 0 4.868 1.06 4.868 5.845v71.604h18.844v-77.449z" fill="#e28424" fill-rule="evenodd"/></g><g><path clip-rule="evenodd" d="m236.111 417.653c0-9.771-7.933-17.708-17.698-17.708-2.148 0-4.238.401-6.157 1.117 7.503 2.034 13.03 8.911 13.03 17.077 0 7.593-4.783 14.069-11.512 16.59 1.489.401 3.036.602 4.639.602 9.765.001 17.698-7.908 17.698-17.678z" fill="#685d68" fill-rule="evenodd"/></g><g><path clip-rule="evenodd" d="m334.912 484.959c0-10.716-8.763-19.484-19.474-19.484h-25.087c10.711 0 19.474 8.768 19.474 19.484v16.848c0 1.433-1.174 2.636-2.635 2.636h25.087c1.461 0 2.635-1.203 2.635-2.636z" fill="#685d68" fill-rule="evenodd"/></g><g><path clip-rule="evenodd" d="m179.436 213.5-14.176-14.212-15.092 15.1c-7.933 7.937-20.705 8.281-29.039 1.003.315.372.659.745 1.002 1.117l12.085 12.063c8.276 8.309 21.851 8.309 30.156 0z" fill="#e5e1e5" fill-rule="evenodd"/></g><g><path clip-rule="evenodd" d="m218.613 213.472 34.108-34.126c-2.091-5.845-3.207-12.178-3.207-18.739 0-2.321.143-4.613.401-6.877l-11.369 11.433-34.136 34.126c-6.816 6.848-16.41 9.341-25.259 7.507-5.069-1.06-9.909-3.553-13.832-7.45l14.118 14.155c10.767 10.773 28.408 10.773 39.176-.029z" fill="#685d68" fill-rule="evenodd"/></g><g><path clip-rule="evenodd" d="m323.829 107.943c8.62-10.859 7.933-26.791-2.091-36.819l-14.176-14.183c3.637 3.639 6.043 8.08 7.217 12.779 2.062 8.195.344 17.134-5.126 24.04l-11.427 11.461c2.32-.287 4.668-.43 7.074-.43 6.501 0 12.744 1.118 18.529 3.152z" fill="#685d68" fill-rule="evenodd"/></g><g><path clip-rule="evenodd" d="m336.802 56.024c8.305-8.281 8.305-21.862 0-30.172l-12.057-12.063c-.372-.372-.716-.688-1.088-1.032 7.245 8.367 6.902 21.146-1.031 29.083l-15.064 15.1 14.176 14.183z" fill="#e5e1e5" fill-rule="evenodd"/></g><g><path clip-rule="evenodd" d="m326.922 160.607c0-11.948-9.68-21.633-21.622-21.633-2.52 0-4.954.43-7.217 1.232 8.677 2.808 14.92 10.974 14.92 20.573 0 5.559-2.091 10.63-5.556 14.47-2.091 2.35-4.697 4.212-7.618 5.444-.401.172-.831.344-1.231.487 2.091.688 4.353 1.06 6.701 1.06 2.978 0 5.842-.602 8.42-1.719 7.762-3.266 13.203-10.946 13.203-19.914z" fill="#685d68" fill-rule="evenodd"/></g><g><path d="m305.3 189.798c-16.089 0-29.179-13.095-29.179-29.191 0-16.095 13.09-29.19 29.179-29.19s29.179 13.095 29.179 29.19c0 16.096-13.09 29.191-29.179 29.191zm0-43.266c-7.755 0-14.065 6.314-14.065 14.075s6.31 14.076 14.065 14.076 14.065-6.314 14.065-14.076c0-7.761-6.31-14.075-14.065-14.075z"/></g><g><path clip-rule="evenodd" d="m501.413 263.529v-22.063c0-4.441-3.608-8.051-8.019-8.051h-104.271-5.699c-4.41 0-8.019 3.61-8.019 8.051v22.063c0 4.413 3.608 8.023 8.019 8.023h2.205 105.559 2.205c4.411-.001 8.02-3.611 8.02-8.023z" fill="#faf8f9" fill-rule="evenodd"/></g><g><path clip-rule="evenodd" d="m501.413 263.529v-22.063c0-4.441-3.608-8.051-8.019-8.051h-30.872c4.41 0 8.047 3.61 8.047 8.051v22.063c0 4.413-3.637 8.023-8.047 8.023h28.667 2.205c4.41-.001 8.019-3.611 8.019-8.023z" fill="#e5e1e5" fill-rule="evenodd"/></g><g><path d="m218.413 442.889c13.925 0 25.255-11.321 25.255-25.236 0-13.931-11.329-25.265-25.255-25.265-13.91 0-25.227 11.334-25.227 25.265 0 13.915 11.317 25.236 25.227 25.236zm0-35.386c5.591 0 10.141 4.553 10.141 10.15 0 5.581-4.55 10.122-10.141 10.122-5.576 0-10.113-4.54-10.113-10.122 0-5.597 4.537-10.15 10.113-10.15z"/><path d="m493.394 225.857h-97.654c-3.607-23.451-12.896-45.656-27.109-64.74.001-.171.013-.339.013-.51 0-24.365-13.822-45.548-34.027-56.15 4.52-10.65 3.514-22.95-2.777-32.758l10.298-10.323c5.443-5.426 8.444-12.672 8.451-20.402.006-7.744-2.992-15.011-8.441-20.463l-12.058-12.064c-5.445-5.448-12.7-8.447-20.432-8.447-.009 0-.018 0-.026 0-7.728.007-14.971 3.01-20.382 8.442l-10.33 10.315c-5.61-3.597-12.147-5.533-18.997-5.533-9.433 0-18.284 3.656-24.919 10.295l-36.513 36.532c-2.951 2.952-2.949 7.737.003 10.687 2.952 2.951 7.736 2.949 10.688-.002l36.513-36.532c3.78-3.783 8.833-5.866 14.228-5.866 5.396 0 10.449 2.083 14.229 5.866l42.241 42.263c.001.001.002.002.002.002 6.065 6.071 7.49 15.122 4.055 22.611-4.858-1.198-9.929-1.845-15.151-1.845-34.928 0-63.344 28.429-63.344 63.373 0 5.744.782 11.306 2.22 16.6l-30.909 30.951c-3.78 3.782-8.839 5.865-14.243 5.865s-10.462-2.083-14.241-5.863l-42.215-42.265c-7.778-7.783-7.72-20.355.14-28.628l42.069-44.383c2.871-3.029 2.744-7.813-.286-10.684-3.03-2.87-7.813-2.744-10.684.286l-42.064 44.377c-11.717 12.333-13.243 30.339-4.626 43.794l-10.333 10.338c-11.238 11.244-11.242 29.568.007 40.863l12.07 12.047c5.425 5.447 12.668 8.45 20.397 8.456h.025c7.733 0 14.988-2.999 20.438-8.452l10.285-10.309c5.614 3.6 12.158 5.538 19.017 5.538 9.443 0 18.298-3.656 24.936-10.297l26.515-26.551c10.969 18.925 31.428 31.691 54.825 31.691 8.974 0 17.511-1.888 25.253-5.269 3.521 9.401 5.307 19.306 5.307 29.545 0 25.936-12.096 50.637-32.473 66.568h-151.413c-4.174 0-7.557 3.384-7.557 7.557s3.383 7.557 7.557 7.557h153.955.009.006 19.404c5.039 0 9.139 4.116 9.139 9.176v14.011c0 5.044-4.101 9.147-9.139 9.147h-285.204c-5.054 0-9.168-4.104-9.168-9.147v-14.011c0-5.06 4.113-9.176 9.168-9.176h76.836c4.174 0 7.557-3.384 7.557-7.557s-3.383-7.557-7.557-7.557h-76.836c-13.389 0-24.282 10.897-24.282 24.291v14.011c0 13.378 10.892 24.262 24.282 24.262h14.122v10.637c0 14.215 11.561 25.781 25.77 25.781h69.738v44.111h-119.711c-14.905 0-27.031 12.131-27.031 27.042v16.848c0 5.618 4.572 10.191 10.192 10.191h319.055c5.62 0 10.191-4.573 10.191-10.193v-16.848c0-14.911-12.125-27.042-27.03-27.042h-28.384v-80.529h38.292c12.196 0 22.313-9.053 24.001-20.793 11.484-10.38 21.148-22.335 28.725-35.511v130.551c0 33.285 27.067 60.365 60.337 60.365s60.337-27.08 60.337-60.365v-173.493c5.956-2.19 10.224-7.905 10.224-14.613v-22.063c0-8.607-6.987-15.609-15.576-15.609zm-334.367-2.627c-2.589 2.591-6.048 4.017-9.743 4.017-.004 0-.008 0-.012 0-3.685-.003-7.129-1.427-9.717-4.024l-12.069-12.047c-5.366-5.387-5.37-14.133-.01-19.496l9.745-9.75 31.522 31.56zm-78.993 175.462c-5.876 0-10.657-4.785-10.657-10.666v-10.637h80.395v21.303zm247.321 86.267v11.926h-309.211v-11.926c0-6.577 5.346-11.927 11.917-11.927h127.267 122.169 35.941c6.571 0 11.917 5.35 11.917 11.927zm-55.414-27.042h-107.056v-51.668-28.861h107.055v80.529zm49.793-397.489-31.546-31.563 9.757-9.743c2.571-2.581 6.016-4.004 9.701-4.008h.013c3.693 0 7.154 1.426 9.743 4.017l12.057 12.064c2.593 2.595 4.02 6.063 4.017 9.766-.003 3.689-1.426 7.138-4.023 9.726zm-16.434 148.438c-26.593 0-48.23-21.649-48.23-48.259s21.637-48.258 48.23-48.258 48.23 21.649 48.23 48.258c0 26.61-21.636 48.259-48.23 48.259zm72.772 69.276v3.368c-5.247 20.079-15.088 38.372-28.783 53.742-1.849-11.538-11.839-20.387-23.864-20.425 16.242-18.118 25.549-41.868 25.549-66.57 0-12.973-2.436-25.498-7.234-37.326 9.428-7.226 16.78-17.032 20.978-28.362 7.81 13.452 13.154 28.2 15.766 43.577-7.186 1.383-12.634 7.723-12.634 15.321v22.063c-.001 6.707 4.266 12.423 10.222 14.612zm105.56 173.493c0 24.951-20.287 45.25-45.223 45.25s-45.223-20.299-45.223-45.25v-9.004h16.271c4.174 0 7.557-3.384 7.557-7.557 0-4.174-3.383-7.557-7.557-7.557h-16.271v-21.131h16.271c4.174 0 7.557-3.384 7.557-7.557 0-4.174-3.383-7.557-7.557-7.557h-16.271v-21.16h6.333c15.987 0 21.747 2.226 28.416 4.804 8.495 3.283 18.124 7.004 45.474 7.116l10.223.033zm0-84.687-10.168-.033c-24.557-.101-32.449-3.151-40.082-6.1-7.404-2.861-15.059-5.819-33.864-5.819h-6.333v-75.887h90.446v87.839zm10.224-103.419c0 .239-.225.466-.462.466h-109.97c-.237 0-.462-.227-.462-.466v-22.063c0-.283.244-.494.462-.494h5.68.01.009 104.27c.218 0 .462.211.462.494v22.063z"/></g></g></svg>